<?xml version="1.0" standalone="no"?>
<!DOCTYPE svg PUBLIC "-//W3C//DTD SVG 20010904//EN"
 "http://www.w3.org/TR/2001/REC-SVG-20010904/DTD/svg10.dtd">
<svg version="1.0" xmlns="http://www.w3.org/2000/svg"
 width="260.000000pt" height="260.000000pt" viewBox="0 0 260.000000 260.000000"
 preserveAspectRatio="xMidYMid meet">
<metadata>
Created by potrace 1.14, written by Peter Selinger 2001-2017
</metadata>
<g transform="translate(0.000000,260.000000) scale(0.100000,-0.100000)"
fill="#000000" stroke="none">
<path d="M0 1300 l0 -1300 1300 0 1300 0 0 1300 0 1300 -1300 0 -1300 0 0
-1300z m862 775 c86 -18 139 -42 210 -95 66 -49 86 -86 67 -122 -16 -30 -28
-38 -63 -38 -17 0 -41 11 -63 30 -18 17 -57 42 -86 58 -48 25 -61 27 -162 27
-106 0 -112 -1 -173 -34 -74 -40 -131 -101 -168 -180 -23 -48 -28 -74 -33
-179 -5 -107 -9 -126 -25 -138 -29 -20 -70 -17 -92 7 -29 32 -26 217 4 314 56
185 214 322 405 354 76 13 105 12 179 -4z m573 -10 l25 -24 0 -226 c0 -124 2
-225 4 -225 3 0 179 109 393 243 213 134 396 246 406 250 28 10 63 -9 77 -42
25 -63 20 -67 -283 -252 -155 -94 -353 -215 -439 -268 l-158 -96 0 -428 c0
-283 -4 -435 -11 -448 -26 -50 -99 -43 -118 12 -12 35 -16 1433 -4 1478 3 13
19 29 37 37 42 18 43 18 71 -11z m592 -1138 c221 -220 323 -329 323 -344 0
-35 -33 -66 -69 -66 -30 0 -64 31 -352 319 -231 231 -319 326 -319 342 0 30
43 72 72 72 16 0 111 -88 345 -323z m-1659 292 c17 -17 20 -39 24 -153 3 -125
5 -136 36 -198 38 -78 101 -139 180 -176 50 -24 69 -27 162 -27 95 0 110 3
157 28 29 15 67 40 85 55 18 16 41 32 51 35 26 10 64 -12 77 -43 16 -39 -2
-70 -75 -125 -71 -53 -141 -82 -239 -97 -187 -29 -406 81 -503 253 -48 83 -64
151 -70 289 -5 118 -4 127 17 153 26 33 71 36 98 6z"/>
<path d="M627 1999 c-202 -69 -309 -227 -305 -447 l1 -97 7 110 c8 119 23 172
71 247 88 137 276 219 437 189 74 -14 148 -47 205 -92 20 -17 37 -26 37 -21 0
18 -124 95 -182 113 -80 25 -195 25 -271 -2z"/>
<path d="M1395 1300 c0 -399 1 -525 3 -280 l2 445 435 269 c240 147 438 273
442 280 4 6 -4 4 -17 -5 -137 -88 -829 -513 -842 -517 -16 -4 -18 15 -21 264
-1 148 -2 -57 -2 -456z"/>
<path d="M1975 877 c165 -162 301 -294 302 -293 5 4 -578 581 -590 584 -6 2
123 -129 288 -291z"/>
<path d="M322 1063 c-2 -130 14 -197 70 -284 44 -69 104 -118 194 -161 65 -31
75 -33 180 -33 107 0 112 1 185 37 40 20 88 51 104 69 l30 33 -42 -32 c-99
-77 -233 -113 -343 -94 -158 28 -286 129 -341 269 -17 44 -24 89 -29 183 l-7
125 -1 -112z"/>
</g>
</svg>
